<svg width="18" height="18" viewBox="0 0 18 20" fill="none" xmlns="http://www.w3.org/2000/svg">
    <path d="M1.30005 5.00033H2.96672M2.96672 5.00033H16.3M2.96672 5.00033V16.667C2.96672 17.109 3.14231 17.5329 3.45487 17.8455C3.76743 18.1581 4.19135 18.3337 4.63338 18.3337H12.9667C13.4087 18.3337 13.8327 18.1581 14.1452 17.8455C14.4578 17.5329 14.6334 17.109 14.6334 16.667V5.00033H2.96672ZM5.46672 5.00033V3.33366C5.46672 2.89163 5.64231 2.46771 5.95487 2.15515C6.26743 1.84259 6.69135 1.66699 7.13338 1.66699H10.4667C10.9087 1.66699 11.3327 1.84259 11.6452 2.15515C11.9578 2.46771 12.1334 2.89163 12.1334 3.33366V5.00033M7.13338 9.16699V14.167M10.4667 9.16699V14.167"
          stroke="#E42020" stroke-width="1.66667" stroke-linecap="round" stroke-linejoin="round"/>
</svg>
